<?xml version="1.0" encoding="UTF-8"?>
<svg id="Layer_1" data-name="Layer 1" xmlns="http://www.w3.org/2000/svg" xmlns:xlink="http://www.w3.org/1999/xlink" version="1.1" viewBox="0 0 566.9 566.9">
  <defs>
    <style>
      .cls-1 {
        clip-path: url(#clippath);
      }

      .cls-2 {
        fill: none;
      }

      .cls-2, .cls-3, .cls-4, .cls-5 {
        stroke-width: 0px;
      }

      .cls-3 {
        fill: #fbba00;
      }

      .cls-4 {
        fill: #1d1d1b;
      }

      .cls-6 {
        clip-path: url(#clippath-1);
      }

      .cls-7 {
        clip-path: url(#clippath-4);
      }

      .cls-8 {
        clip-path: url(#clippath-3);
      }

      .cls-9 {
        clip-path: url(#clippath-2);
      }

      .cls-10 {
        clip-path: url(#clippath-7);
      }

      .cls-11 {
        clip-path: url(#clippath-8);
      }

      .cls-12 {
        clip-path: url(#clippath-6);
      }

      .cls-13 {
        clip-path: url(#clippath-5);
      }

      .cls-14 {
        clip-path: url(#clippath-9);
      }

      .cls-15 {
        clip-path: url(#clippath-20);
      }

      .cls-16 {
        clip-path: url(#clippath-21);
      }

      .cls-17 {
        clip-path: url(#clippath-24);
      }

      .cls-18 {
        clip-path: url(#clippath-23);
      }

      .cls-19 {
        clip-path: url(#clippath-22);
      }

      .cls-20 {
        clip-path: url(#clippath-25);
      }

      .cls-21 {
        clip-path: url(#clippath-44);
      }

      .cls-22 {
        clip-path: url(#clippath-45);
      }

      .cls-23 {
        clip-path: url(#clippath-40);
      }

      .cls-24 {
        clip-path: url(#clippath-42);
      }

      .cls-25 {
        clip-path: url(#clippath-41);
      }

      .cls-26 {
        clip-path: url(#clippath-47);
      }

      .cls-27 {
        clip-path: url(#clippath-43);
      }

      .cls-28 {
        clip-path: url(#clippath-46);
      }

      .cls-29 {
        clip-path: url(#clippath-48);
      }

      .cls-30 {
        clip-path: url(#clippath-49);
      }

      .cls-31 {
        clip-path: url(#clippath-27);
      }

      .cls-32 {
        clip-path: url(#clippath-28);
      }

      .cls-33 {
        clip-path: url(#clippath-26);
      }

      .cls-34 {
        clip-path: url(#clippath-29);
      }

      .cls-35 {
        clip-path: url(#clippath-34);
      }

      .cls-36 {
        clip-path: url(#clippath-35);
      }

      .cls-37 {
        clip-path: url(#clippath-36);
      }

      .cls-38 {
        clip-path: url(#clippath-37);
      }

      .cls-39 {
        clip-path: url(#clippath-39);
      }

      .cls-40 {
        clip-path: url(#clippath-33);
      }

      .cls-41 {
        clip-path: url(#clippath-32);
      }

      .cls-42 {
        clip-path: url(#clippath-30);
      }

      .cls-43 {
        clip-path: url(#clippath-38);
      }

      .cls-44 {
        clip-path: url(#clippath-31);
      }

      .cls-45 {
        clip-path: url(#clippath-53);
      }

      .cls-46 {
        clip-path: url(#clippath-54);
      }

      .cls-47 {
        clip-path: url(#clippath-50);
      }

      .cls-48 {
        clip-path: url(#clippath-51);
      }

      .cls-49 {
        clip-path: url(#clippath-52);
      }

      .cls-50 {
        clip-path: url(#clippath-14);
      }

      .cls-51 {
        clip-path: url(#clippath-13);
      }

      .cls-52 {
        clip-path: url(#clippath-12);
      }

      .cls-53 {
        clip-path: url(#clippath-10);
      }

      .cls-54 {
        clip-path: url(#clippath-15);
      }

      .cls-55 {
        clip-path: url(#clippath-17);
      }

      .cls-56 {
        clip-path: url(#clippath-16);
      }

      .cls-57 {
        clip-path: url(#clippath-19);
      }

      .cls-58 {
        clip-path: url(#clippath-11);
      }

      .cls-59 {
        clip-path: url(#clippath-18);
      }

      .cls-5 {
        fill: #fff;
      }
    </style>
    <clipPath id="clippath">
      <rect class="cls-2" width="566.9" height="566.9"/>
    </clipPath>
    <clipPath id="clippath-1">
      <rect class="cls-2" width="566.9" height="566.9"/>
    </clipPath>
    <clipPath id="clippath-2">
      <rect class="cls-2" width="566.9" height="566.9"/>
    </clipPath>
    <clipPath id="clippath-3">
      <rect class="cls-2" width="566.9" height="566.9"/>
    </clipPath>
    <clipPath id="clippath-4">
      <rect class="cls-2" width="566.9" height="566.9"/>
    </clipPath>
    <clipPath id="clippath-5">
      <rect class="cls-2" width="566.9" height="566.9"/>
    </clipPath>
    <clipPath id="clippath-6">
      <rect class="cls-2" width="566.9" height="566.9"/>
    </clipPath>
    <clipPath id="clippath-7">
      <rect class="cls-2" width="566.9" height="566.9"/>
    </clipPath>
    <clipPath id="clippath-8">
      <rect class="cls-2" width="566.9" height="566.9"/>
    </clipPath>
    <clipPath id="clippath-9">
      <rect class="cls-2" width="566.9" height="566.9"/>
    </clipPath>
    <clipPath id="clippath-10">
      <rect class="cls-2" width="566.9" height="566.9"/>
    </clipPath>
    <clipPath id="clippath-11">
      <rect class="cls-2" width="566.9" height="566.9"/>
    </clipPath>
    <clipPath id="clippath-12">
      <rect class="cls-2" width="566.9" height="566.9"/>
    </clipPath>
    <clipPath id="clippath-13">
      <rect class="cls-2" width="566.9" height="566.9"/>
    </clipPath>
    <clipPath id="clippath-14">
      <rect class="cls-2" width="566.9" height="566.9"/>
    </clipPath>
    <clipPath id="clippath-15">
      <rect class="cls-2" width="566.9" height="566.9"/>
    </clipPath>
    <clipPath id="clippath-16">
      <rect class="cls-2" width="566.9" height="566.9"/>
    </clipPath>
    <clipPath id="clippath-17">
      <rect class="cls-2" width="566.9" height="566.9"/>
    </clipPath>
    <clipPath id="clippath-18">
      <rect class="cls-2" width="566.9" height="566.9"/>
    </clipPath>
    <clipPath id="clippath-19">
      <rect class="cls-2" width="566.9" height="566.9"/>
    </clipPath>
    <clipPath id="clippath-20">
      <rect class="cls-2" width="566.9" height="566.9"/>
    </clipPath>
    <clipPath id="clippath-21">
      <rect class="cls-2" width="566.9" height="566.9"/>
    </clipPath>
    <clipPath id="clippath-22">
      <rect class="cls-2" width="566.9" height="566.9"/>
    </clipPath>
    <clipPath id="clippath-23">
      <rect class="cls-2" width="566.9" height="566.9"/>
    </clipPath>
    <clipPath id="clippath-24">
      <rect class="cls-2" width="566.9" height="566.9"/>
    </clipPath>
    <clipPath id="clippath-25">
      <rect class="cls-2" width="566.9" height="566.9"/>
    </clipPath>
    <clipPath id="clippath-26">
      <rect class="cls-2" width="566.9" height="566.9"/>
    </clipPath>
    <clipPath id="clippath-27">
      <rect class="cls-2" width="566.9" height="566.9"/>
    </clipPath>
    <clipPath id="clippath-28">
      <rect class="cls-2" width="566.9" height="566.9"/>
    </clipPath>
    <clipPath id="clippath-29">
      <rect class="cls-2" width="566.9" height="566.9"/>
    </clipPath>
    <clipPath id="clippath-30">
      <rect class="cls-2" width="566.9" height="566.9"/>
    </clipPath>
    <clipPath id="clippath-31">
      <rect class="cls-2" width="566.9" height="566.9"/>
    </clipPath>
    <clipPath id="clippath-32">
      <rect class="cls-2" width="566.9" height="566.9"/>
    </clipPath>
    <clipPath id="clippath-33">
      <rect class="cls-2" width="566.9" height="566.9"/>
    </clipPath>
    <clipPath id="clippath-34">
      <rect class="cls-2" width="566.9" height="566.9"/>
    </clipPath>
    <clipPath id="clippath-35">
      <rect class="cls-2" width="566.9" height="566.9"/>
    </clipPath>
    <clipPath id="clippath-36">
      <rect class="cls-2" width="566.9" height="566.9"/>
    </clipPath>
    <clipPath id="clippath-37">
      <rect class="cls-2" width="566.9" height="566.9"/>
    </clipPath>
    <clipPath id="clippath-38">
      <rect class="cls-2" width="566.9" height="566.9"/>
    </clipPath>
    <clipPath id="clippath-39">
      <rect class="cls-2" width="566.9" height="566.9"/>
    </clipPath>
    <clipPath id="clippath-40">
      <rect class="cls-2" width="566.9" height="566.9"/>
    </clipPath>
    <clipPath id="clippath-41">
      <rect class="cls-2" width="566.9" height="566.9"/>
    </clipPath>
    <clipPath id="clippath-42">
      <rect class="cls-2" width="566.9" height="566.9"/>
    </clipPath>
    <clipPath id="clippath-43">
      <rect class="cls-2" width="566.9" height="566.9"/>
    </clipPath>
    <clipPath id="clippath-44">
      <rect class="cls-2" width="566.9" height="566.9"/>
    </clipPath>
    <clipPath id="clippath-45">
      <rect class="cls-2" width="566.9" height="566.9"/>
    </clipPath>
    <clipPath id="clippath-46">
      <rect class="cls-2" width="566.9" height="566.9"/>
    </clipPath>
    <clipPath id="clippath-47">
      <rect class="cls-2" width="566.9" height="566.9"/>
    </clipPath>
    <clipPath id="clippath-48">
      <rect class="cls-2" width="566.9" height="566.9"/>
    </clipPath>
    <clipPath id="clippath-49">
      <rect class="cls-2" width="566.9" height="566.9"/>
    </clipPath>
    <clipPath id="clippath-50">
      <rect class="cls-2" width="566.9" height="566.9"/>
    </clipPath>
    <clipPath id="clippath-51">
      <rect class="cls-2" width="566.9" height="566.9"/>
    </clipPath>
    <clipPath id="clippath-52">
      <rect class="cls-2" width="566.9" height="566.9"/>
    </clipPath>
    <clipPath id="clippath-53">
      <rect class="cls-2" width="566.9" height="566.9"/>
    </clipPath>
    <clipPath id="clippath-54">
      <rect class="cls-2" width="566.9" height="566.9"/>
    </clipPath>
  </defs>
  <g class="cls-1">
    <path class="cls-4" d="M566.9,283.2c.2,156.5-126.6,283.6-283.2,283.8C127.2,567.1.2,440.3,0,283.8-.2,127.2,126.6.2,283.2,0c156.6-.2,283.6,126.6,283.8,283.2"/>
  </g>
  <g class="cls-6">
    <path class="cls-5" d="M554.8,283.2c.2,149.9-121.2,271.5-271.1,271.6-149.9.1-271.5-121.2-271.6-271.1C12,133.9,133.3,12.3,283.2,12.1c149.9-.2,271.5,121.2,271.6,271.1"/>
  </g>
  <rect class="cls-2" width="566.9" height="566.9"/>
  <path class="cls-3" d="M539.6,283.2c.1,141.4-114.4,256.2-255.9,256.4-141.4.1-256.2-114.4-256.4-255.8-.1-141.5,114.4-256.2,255.9-256.4,141.5-.1,256.2,114.4,256.4,255.9"/>
  <g class="cls-9">
    <path class="cls-5" d="M208.2,109.9c.6-1.7,1.6-5,1.6-6.7,0-2.8-1.9-3.5-5-3.5v-1.4h13.6s0,1.4,0,1.4c-4.6,0-5.5,4.1-6.7,8.1l-13,41.2h-1.3l-10.4-31.3h-.1l-10.1,31.4h-1.4l-14.1-42.6c-1.5-4.7-2.2-6.6-6.3-6.6v-1.4h16.9s0,1.4,0,1.4c-2.5,0-4.5.6-4.5,3.1s.7,3.1,1,4.2l9.3,28.7h.1l7.6-23.1-1.9-5.5c-1.4-4.2-2.5-7.5-7-7.5v-1.4h17.8s0,1.4,0,1.4c-2.9,0-4.9.2-4.9,3.4,0,2.2,1.1,5.2,1.8,7.2l8.4,25.5h.1l8.4-25.9Z"/>
  </g>
  <g class="cls-8">
    <path class="cls-5" d="M253.8,121.2v-13.4c0-6.3,0-8.1-6.5-8.1v-1.4h19.4s0,1.4,0,1.4c-6.5,0-6.5,1.9-6.5,8.1v30.4c0,6.2,0,8.1,6.5,8.1v1.4h-19.4s0-1.4,0-1.4c6.5,0,6.5-1.9,6.5-8.1v-14.3s-21.3,0-21.3,0v14.3c0,6.2,0,8.1,6.5,8.1v1.4h-19.4s0-1.4,0-1.4c6.5,0,6.5-1.9,6.5-8.1v-30.4c0-6.3,0-8.1-6.5-8.1v-1.4h19.4s0,1.4,0,1.4c-6.5,0-6.5,1.9-6.5,8.1v13.4s21.3,0,21.3,0Z"/>
  </g>
  <g class="cls-7">
    <path class="cls-5" d="M281.2,138.1c0,6.3,0,8.1,6.5,8.1v1.4h-19.4s0-1.4,0-1.4c6.5,0,6.5-1.9,6.5-8.1v-30.4c0-6.3,0-8.1-6.5-8.1v-1.4h19.4s0,1.4,0,1.4c-6.5,0-6.5,1.9-6.5,8.1v30.4Z"/>
  </g>
  <g class="cls-13">
    <path class="cls-5" d="M316.4,114.1h-1.3c-.5-7.8-5.2-14.2-12.8-14.2-3.9,0-7.9,3.2-7.9,7.7,0,10.4,25,12.2,25,26.8,0,7.8-5.6,14.3-14.4,14.3-3.2,0-5.5-.7-7.2-1.4-1.9-.7-3.2-1.3-4.9-1.3s-1.9,1.3-2.1,2.8h-1.3v-17s1.2,0,1.2,0c1,12,9.5,14.1,13.5,14.1s9.1-2.6,9.1-8.1c0-11.4-24.2-12.7-24.2-27.5,0-7.6,6.3-13.2,13.5-13.2,2.5,0,4.5.7,6.2,1.4,1.7.7,3,1.4,3.9,1.4,1.7,0,2.1-1.3,2.3-2.8h1.3v17.1Z"/>
  </g>
  <g class="cls-12">
    <path class="cls-5" d="M355.1,137.6c3.7,3.9,8.1,8.3,13.6,8.6v1.4h-21.7s0-1.4,0-1.4c1.3,0,3.6-.5,3.6-2.3s-1.9-3.5-3-4.8l-15.2-16.2v15.1c0,6.3,0,8.1,6.5,8.1v1.4h-19.4s0-1.4,0-1.4c6.5,0,6.5-1.9,6.5-8.1v-30.4c0-6.3,0-8.1-6.5-8.1v-1.4h19.4s0,1.4,0,1.4c-6.5,0-6.5,1.9-6.5,8.1v14.4s11.3-11.3,11.3-11.3c1.9-1.9,6.3-7,6.3-8.9s-1.9-2.2-4.1-2.2v-1.4h16.7s0,1.4,0,1.4c-4.5,0-9,4.6-12,7.8l-11.8,12.8,16.3,17.4Z"/>
  </g>
  <g class="cls-10">
    <path class="cls-5" d="M398.2,108.8c.8-1.4,2.5-4.1,2.5-5.8,0-2.8-2.1-3.6-4.6-3.6v-1.4h15.9s0,1.4,0,1.4c-4.4,0-7,3.3-9.3,7.3l-11.5,19.8v11.5c0,6.3,0,8.1,6.5,8.1v1.4h-19.4s0-1.4,0-1.4c6.5,0,6.5-1.9,6.5-8.1v-10.8s-14.2-23.2-14.2-23.2c-1.6-2.8-4.3-4.5-6.6-4.5v-1.4h19.5s0,1.4,0,1.4c-2.7,0-5.3.5-5.3,3.3,0,1.2,1,2.7,1.5,3.7l10.1,16.9,8.4-14.5Z"/>
  </g>
  <g class="cls-11">
    <path class="cls-5" d="M264.3,156.4c0-.9.1-1.7.3-2.3.2-.6.5-1,.7-1s.6.3.6.9-.1,1.2-.4,2.1c-.3.8-.6,1.6-1,2.4-.1-.8-.2-1.5-.2-2.1M276.4,153.1c-.6.4-1.2.8-1.7,1.4s-1.4,1.6-2.6,3.2l-5.1,6.6-.7.9c0,0-.2.2-.4.5-.1-1.2-.4-2.6-.8-4.3-.2-1-.4-1.7-.5-2.1.8-1.4,1.4-2.5,1.7-3.4.4-.9.5-1.6.5-2.3,0-1.1-.3-1.6-.9-1.6-.6,0-1.2.7-1.8,2-.6,1.3-.9,2.7-.9,4.1s0,1.2.2,2.1c-1.5,2.2-3.1,4-4.8,5.1-1.7,1.2-3.4,1.7-5.1,1.7s-3.6-.5-4.8-1.6-1.9-2.5-1.9-4.2.4-2.5,1.2-3.4c.8-.8,1.9-1.3,3.3-1.3s2.2.3,3.5,1c1.3.7,2.6,1.7,3.9,3l.3.3,2.8-1.6-.2-.3c-.7.4-1.2.6-1.5.6s-.7-.2-1.2-.7c-1.4-1.2-2.6-2-3.4-2.5-.9-.4-1.9-.6-3-.6-1.9,0-3.4.6-4.6,1.7-1.2,1.1-1.8,2.5-1.8,4.3s.3,2.6,1,3.6c.6.9,1.4,1.6,2.4,2.1,1,.5,2.1.8,3.3.8,1.8,0,3.6-.6,5.4-1.9s3.6-3.1,5.4-5.5c0,.1,0,.2,0,.2l.4,1.5c.4,1.7.6,3,.6,3.9s-.1,1-.4,1.5l.3.2.2-.3,2.4-3.1,2.4-3.1c.7-.9,1.2-1.5,1.5-1.9l.4-.5c-.4,1.7-.8,3.5-1.1,5.4s-.5,3.1-.5,3.8c.5-.2,1-.4,1.6-.7.8-.3,1.4-.6,1.7-.7l-.2-.4c-.4.2-.8.3-1,.3-.3,0-.5-.2-.5-.6s.2-1.7.5-3.6c.3-1.9.6-3.3.8-4.1.4-1.4,1-2.5,1.7-3.3.7-.8,1.5-1.3,2.3-1.3s.9.2.9.6,0,.3,0,.5v.2c0,0,.3,0,.3,0l.9-3c-.8,0-1.6.2-2.4.7"/>
  </g>
  <g class="cls-14">
    <path class="cls-5" d="M279.8,157.6c-.6,1.1-.9,1.8-2.4,3.8-.5.6-1.2,1.6-2.1,2.4-.1.1-.8.8-1.1.8s-.1,0-.1-.3c0-.5.6-3,2.4-5,1.1-1.2,2.1-1.7,2.9-1.7.2,0,.3,0,.4,0M278.1,161.6c-.4,1-.6,1.5-.6,2.1,0,1,.5,1.2.8,1.2.9,0,2.7-2.5,2.7-2.8s0-.1-.1-.1-.1.1-.2.2c-1,1.6-2.1,2.4-2.2,2.4s-.1,0-.1-.1c0-.4.7-1.9,1.1-2.9l1.8-4.1h-1.2c-.1,0-.2,0-.3,0-.2,0-.4,0-.5,0-2.2,0-4,1.9-4.5,2.5-1.2,1.5-1.5,3-1.5,3.6s0,1.4.8,1.4,1.2-.6,1.6-1c1.7-1.6,3-3.7,3-3.9.4-.6.4-.7.6-1l-1.2,2.7Z"/>
  </g>
  <g class="cls-53">
    <path class="cls-5" d="M287.6,157.5c-.3.6-.9,1.9-3.3,4.7-.6.8-2,2.2-2.6,2.2s-.3-.1-.3-.4c0-1.1,2.2-6.7,5.5-6.7s.4,0,.7.1M285.5,163.7c-.8.7-2,1.8-2.7,2.6-1.2,1.2-2.1,2.4-2.1,3.5s.6,1.1,1,1.1c1,0,2.5-1.4,3.8-4.2.5-1.1,1.1-2.8,1.5-4,0-.2.1-.4.2-.6.2-.2,1.3-1.3,1.5-1.5s.2-.2.2-.3-.1,0-.1,0c0,0-.1,0-.1.1-.4.5-.9.9-1.1,1.2l1.4-4.1h-1.3c0-.1-.2-.1-.3-.2-.2,0-.4,0-.6,0-3.4,0-6.1,3.9-6,6.2,0,.8.3,1.4,1,1.4s.7,0,1.8-1.2c.2-.2,1.1-1.1,2.2-2.5.8-1.1,1-1.3,1.5-2.1l-1.7,4.8ZM285.3,164.1c0,.1,0,.2-.1.4-.7,1.9-1.2,3.2-1.9,4.6-.5,1-.9,1.6-1.5,1.6s-.5-.6-.5-.7c0-1.2.9-2.5,1.7-3.4.3-.4.4-.5,1.3-1.4.2-.2.5-.4.7-.7.1-.1.2-.2.3-.3"/>
  </g>
  <g class="cls-58">
    <path class="cls-5" d="M294.3,157.6c-.6,1.1-.9,1.8-2.4,3.8-.5.6-1.2,1.6-2.1,2.4-.1.1-.8.8-1.1.8s-.1,0-.1-.3c0-.5.6-3,2.4-5,1.1-1.2,2.1-1.7,2.9-1.7.2,0,.3,0,.4,0M292.7,161.5c-.4,1-.6,1.5-.6,2.1,0,.9.5,1.2.8,1.2.9,0,2.7-2.5,2.7-2.8s0-.1-.1-.1-.1.1-.2.2c-1,1.6-2.1,2.4-2.2,2.4s-.1,0-.1-.1c0-.4.7-1.9,1.1-2.9l1.8-4.1h-1.2c-.1,0-.2,0-.3,0-.2,0-.4,0-.5,0-2.2,0-4,1.9-4.5,2.5-1.2,1.5-1.4,3-1.4,3.6s0,1.4.8,1.4,1.2-.6,1.6-1c1.7-1.6,3-3.7,3-3.9.4-.6.4-.7.6-1l-1.2,2.6Z"/>
  </g>
  <g class="cls-52">
    <path class="cls-5" d="M297.9,163.3c-.4.4-.7.7-1.3,1.1-.4.2-.6.3-.8.3-.4,0-.4-.3-.4-.4,0-.4.3-1.6,1.1-1.6.4,0,.9.3,1.4.7M300.9,158.9c-.9,1.6-1.1,2-2.1,3.5-.5-.4-1-.8-1.6-.8-1.2,0-2.1,1.7-2.1,2.6s.1.7.6.7c.8,0,1.6-.8,2.3-1.4,1.8,1.3,2,1.4,2.3,1.4s.9-.2,1.7-1.6c0-.1.4-.7.4-.8s0-.1-.1-.1-.1,0-.1,0c-.4.8-.5.9-.7,1.2-.1.2-.2.3-.4.3-.3,0-.7-.3-.9-.4l-1.2-1c.5-.5,1.5-1.7,2.5-3.5,0,0,.1,0,.2,0,.4,0,.5-.3.5-.6,0-.2.1-.8.1-1s0-.2-.1-.2c-.2,0-.5.4-1.1,1.1-.3,0-.4,0-.7-.2-.3-.1-1.8-.8-2.1-.9-.1,0-.3,0-.4,0-.3,0-.5.1-.7.4-.2.3-.2.9-.2,1.2s0,1,.1,1.2c0,.2,0,.3.1.3s.1-.1.1-.2c0,0,0-.2,0-.2,0-.2,0-.7,0-.9,0-.3.2-.5.6-.5.8,0,1.5.1,2,.2h1Z"/>
  </g>
  <g class="cls-51">
    <path class="cls-5" d="M306.7,154.2c0,.6-.4,1.1-.9,1.1s-.5-.3-.5-.6.4-1.1.9-1.1c.2,0,.6.1.6.7M305.3,157.2c.4,0,.9.4.9,1.2s-.2.9-.4,1.4c-.6,1.2-1.3,2.5-1.9,3.8-.1.2-.2.5-.2.7s0,.2.2.2c.1,0,1.1-.3,2.2-2.1,0,0,0-.1.1-.1s0,0,0,.1c0,.1-1.4,2.4-2.5,2.4s-.9-.5-.9-1.2.2-1,.9-2.3c.2-.4.5-1,.7-1.4.1-.2,1-1.9,1-2.2s-.2-.2-.2-.2c-.1,0-.9.3-2,2,0,0-.1.2-.2.2s0,0,0-.1,0,0,0,0c.2-.5,1.5-2.2,2.4-2.2"/>
  </g>
  <g class="cls-50">
    <path class="cls-5" d="M306.6,164.6c.2-.6.5-1.2.8-1.8.5-1.1,1.4-2.9,1.9-4.1.2-.5.4-.9.4-1s-.1-.2-.2-.2-1.1.3-2.5,2.1c0,0,0,.1-.1.1s-.1,0-.1,0c0-.2.7-1,.9-1.1,1.1-1.1,1.6-1.2,1.9-1.2.7,0,1,.8,1,1.3s-.2.8-.3,1.2c-.3.6-.5,1.1-.8,1.7-.2.4-.4.9-.6,1.3.3-.5,1.4-1.9,1.5-2.2.9-1.1,1.6-1.8,1.7-1.9,1.3-1.3,1.6-1.4,1.9-1.4.5,0,.7.7.7,1.1s-.2.9-.4,1.3l-1.6,3.2c-.1.3-.5,1.1-.5,1.3s0,.2.2.2c.4,0,1-.6,1.8-1.7.3-.4.4-.4.4-.4s0,0,0,.1h0c0,0-.2.4-.3.4-1.1,1.4-1.5,2-2.2,2s-.9-.6-.9-1.2.2-1,.5-1.5l1.5-3.1c0-.2.6-1.2.6-1.3s0,0-.1,0c-.1,0-.4.2-.7.4-1,.8-2.2,2.4-2.4,2.5-1.6,2.1-2,2.9-2.7,4.1h-1.3Z"/>
  </g>
  <g class="cls-54">
    <path class="cls-5" d="M316.1,161.7c.7-2.5,2-4.1,3-4.1s.7.3.7.6c0,.6-.7,2.1-3.7,3.5M316,161.9c.9-.4,2.3-1.1,3.5-2.2.8-.8.9-1.3.9-1.5,0-.4-.3-1-1.2-1s-2.1.7-2.9,1.6c-1.1,1.4-1.6,3.3-1.6,4.3s.1,1.6,1.3,1.6,4-2.8,4-3,0-.1-.1-.1,0,0-.2.3c-.9,1.1-2.4,2.4-3.1,2.4s-.6-.8-.6-1.2,0-.8.2-1.2"/>
  </g>
  <g class="cls-56">
    <rect class="cls-4" x="125.8" y="189.3" width="7" height="53.6"/>
  </g>
  <g class="cls-55">
    <path class="cls-4" d="M183.2,241.2c-2.5,1.3-7.6,2.6-14.2,2.6-15.1,0-26.4-9.6-26.4-27.2s11.4-28.2,28-28.2,10.9,1.4,12.7,2.4l-1.8,5.6c-2.5-1.3-6.3-2.2-10.7-2.2-12.6,0-20.9,8-20.9,22.1s7.6,21.6,20.5,21.6,8.6-.9,11.4-2.2l1.4,5.6Z"/>
  </g>
  <g class="cls-59">
    <path class="cls-4" d="M211.9,243.8c-14.2,0-24.1-11-24.1-27.2s10.5-28.2,24.8-28.2,24.2,11.2,24.2,27.1-11.2,28.2-24.8,28.2h0ZM212.2,238.1c11,0,17.2-10.1,17.2-22.3s-5.6-21.8-17.1-21.8-17.3,10.7-17.3,22.4,6.2,21.7,17.1,21.7h0Z"/>
  </g>
  <g class="cls-57">
    <path class="cls-4" d="M246.7,242.9v-53.6h7.6l17.1,27.1c3.9,6.3,7.1,11.9,9.5,17.4h.2c-.6-7.2-.8-13.8-.8-22v-22.5h6.5v53.6h-7l-17-27.2c-3.7-6-7.3-12.1-9.9-17.9h-.2c.4,6.8.5,13.3.5,22.2v22.9h-6.5Z"/>
  </g>
  <g class="cls-15">
    <path class="cls-4" d="M299.1,234.5c3.1,2,7.6,3.5,12.3,3.5,7.1,0,11.2-3.7,11.2-9.1s-2.9-7.9-10.1-10.6c-8.8-3.2-14.1-7.8-14.1-15.3s6.9-14.6,17.3-14.6,9.5,1.3,11.8,2.6l-1.9,5.6c-1.7-1-5.2-2.5-10.1-2.5-7.3,0-10.1,4.4-10.1,8s3.3,7.5,10.7,10.3c9.1,3.6,13.6,7.9,13.6,15.8s-6,15.5-18.7,15.5-10.8-1.6-13.7-3.5l1.8-5.8Z"/>
  </g>
  <g class="cls-16">
    <path class="cls-4" d="M378.9,243.8c-14.2,0-24.1-11-24.1-27.2s10.5-28.2,24.8-28.2,24.2,11.2,24.2,27.1-11.2,28.2-24.8,28.2h0ZM379.2,238.1c11,0,17.2-10.1,17.2-22.3s-5.6-21.8-17.1-21.8-17.3,10.7-17.3,22.4,6.2,21.7,17.1,21.7h0Z"/>
  </g>
  <g class="cls-19">
    <polygon class="cls-4" points="413.6 189.3 442.5 189.3 442.5 195.1 420.6 195.1 420.6 212.9 440.8 212.9 440.8 218.6 420.6 218.6 420.6 242.9 413.6 242.9 413.6 189.3"/>
  </g>
  <g class="cls-18">
    <path class="cls-4" d="M136,311.3l-14.4-60.6h14.7l4.6,24.9c1.4,7.3,2.6,15.1,3.6,21.3h.2c1-6.7,2.4-13.9,3.9-21.5l5.1-24.8h14.6l4.9,25.6c1.4,7.1,2.3,13.6,3.2,20.3h.2c.9-6.8,2.2-13.9,3.5-21.1l4.9-24.8h13.9l-15.7,60.6h-14.9l-5.1-26.1c-1.2-6.1-2.2-11.8-2.9-18.7h-.2c-1.1,6.8-2.1,12.6-3.5,18.7l-5.8,26.1h-15Z"/>
  </g>
  <g class="cls-17">
    <polygon class="cls-4" points="219.9 250.7 219.9 274.1 242.5 274.1 242.5 250.7 256.1 250.7 256.1 311.3 242.5 311.3 242.5 286.1 219.9 286.1 219.9 311.3 206.2 311.3 206.2 250.7 219.9 250.7"/>
  </g>
  <g class="cls-20">
    <rect class="cls-4" x="268.2" y="250.7" width="13.7" height="60.7"/>
  </g>
  <g class="cls-33">
    <path class="cls-4" d="M294.2,297.3c3.6,1.9,9.4,3.8,15.2,3.8s9.6-2.6,9.6-6.7-2.9-5.9-10.2-8.5c-10.1-3.6-16.7-9.2-16.7-18.1s8.7-18.2,22.9-18.2,11.9,1.4,15.5,3.1l-3.1,11c-2.3-1.2-6.8-2.9-12.6-2.9s-8.8,2.8-8.8,5.9,3.3,5.6,11.2,8.6c10.7,4,15.7,9.5,15.7,18.2s-7.7,18.8-24.4,18.8-13.8-1.9-17.2-3.8l2.8-11.2Z"/>
  </g>
  <g class="cls-31">
    <path class="cls-4" d="M342.4,250.7h13.6v26.8h.2c1.4-2.3,2.8-4.5,4.2-6.7l13.7-20.2h16.9l-20.1,25.8,21,34.8h-15.9l-14.9-26.2-5.1,6.4v19.8h-13.6v-60.7h0Z"/>
  </g>
  <g class="cls-32">
    <path class="cls-4" d="M411.7,311.3v-24.8l-19.2-35.8h15.8l6.1,14.6c1.9,4.4,3.2,7.6,4.7,11.6h.2c1.4-3.8,2.8-7.3,4.6-11.6l6.1-14.6h15.4l-20,35.4v25.3h-13.7Z"/>
  </g>
  <g class="cls-34">
    <path class="cls-4" d="M134.2,354.7l-4,12.1h-5.2l13.1-38.6h6l13.1,38.6h-5.3l-4.1-12.1h-13.7ZM146.8,350.8l-3.8-11.1c-.8-2.5-1.4-4.8-1.9-7h-.2c-.5,2.2-1.1,4.6-1.9,7l-3.8,11.1h11.6Z"/>
  </g>
  <g class="cls-42">
    <path class="cls-4" d="M211.3,349.9c-.3-5.4-.6-11.9-.6-16.6h-.1c-1.4,4.5-2.9,9.3-4.9,14.6l-6.8,18.7h-3.8l-6.3-18.4c-1.8-5.5-3.3-10.4-4.4-15h-.1c-.1,4.8-.4,11.2-.7,17l-1,16.5h-4.8l2.7-38.6h6.4l6.6,18.6c1.6,4.8,2.9,9,3.9,13h.1c1-3.9,2.4-8.1,4.1-13l6.9-18.6h6.4l2.4,38.6h-4.9l-.9-16.9Z"/>
  </g>
  <g class="cls-44">
    <polygon class="cls-4" points="261.8 348.7 246.8 348.7 246.8 362.6 263.5 362.6 263.5 366.8 241.8 366.8 241.8 328.2 262.7 328.2 262.7 332.4 246.8 332.4 246.8 344.6 261.8 344.6 261.8 348.7"/>
  </g>
  <g class="cls-41">
    <path class="cls-4" d="M287,328.8c2.5-.5,6.2-.9,9.6-.9,5.3,0,8.8,1,11.2,3.2,1.9,1.6,3,4.3,3,7.3,0,5-3.3,8.4-7.3,9.8v.2c2.9,1,4.7,3.8,5.7,7.8,1.3,5.4,2.2,9.1,2.9,10.6h-5.2c-.6-1.1-1.5-4.4-2.5-9.2-1.1-5.3-3.3-7.3-7.8-7.5h-4.7v16.7h-5v-38h0ZM292,346.3h5.1c5.3,0,8.7-2.9,8.7-7.3s-3.6-7.1-8.9-7.1-4.1.2-4.9.5v14Z"/>
  </g>
  <g class="cls-40">
    <rect class="cls-4" x="333.6" y="328.2" width="5" height="38.6"/>
  </g>
  <g class="cls-35">
    <path class="cls-4" d="M390.1,365.6c-1.8.9-5.5,1.8-10.2,1.8-10.9,0-19-6.9-19-19.6s8.2-20.2,20.1-20.2,7.8,1,9.1,1.7l-1.3,4.1c-1.8-.9-4.5-1.6-7.7-1.6-9,0-15,5.8-15,15.9s5.4,15.5,14.8,15.5,6.2-.6,8.2-1.6l1,4Z"/>
  </g>
  <g class="cls-36">
    <path class="cls-4" d="M418.8,354.7l-4,12.1h-5.1l13.1-38.6h6l13.1,38.6h-5.3l-4.1-12.1h-13.7ZM431.4,350.8l-3.8-11.1c-.8-2.5-1.4-4.8-2-7h-.2c-.5,2.2-1.1,4.6-1.9,7l-3.8,11.1h11.6Z"/>
  </g>
  <g class="cls-37">
    <rect class="cls-4" x="124.6" y="180.7" width="317.8" height="2.2"/>
  </g>
  <g class="cls-38">
    <rect class="cls-4" x="124.6" y="319.5" width="317.8" height="2.2"/>
  </g>
  <g class="cls-43">
    <path class="cls-5" d="M180.9,381.5c2.1-.5,5.6-.9,8.8-.9s6.5.5,8.9,2.2c2.2,1.5,3.6,3.9,3.6,7.1s-1.9,7.5-4.6,9.5c-2.8,2.1-6.6,3.1-10.8,3.1s-2.2-.1-2.9-.2l-2.3,12.1h-7.1l6.3-33ZM185.1,396.6c.8.1,1.6.2,2.8.2,4.4,0,7.2-2.8,7.2-6.1s-2.4-4.3-5.1-4.3-2.3.1-2.9.2l-1.9,9.9Z"/>
  </g>
  <g class="cls-39">
    <path class="cls-5" d="M208.2,381.5c2.2-.5,5.6-.9,9-.9s6.5.5,8.9,2c2.2,1.3,3.8,3.5,3.8,6.6,0,5-3.4,8.1-7.6,9.5v.2c2,.9,2.9,3.1,3.2,6.1.4,3.8.7,8.1,1.3,9.5h-7.4c-.3-.9-.6-3.8-1-8-.3-4.1-1.7-5.4-4.6-5.4h-2.2l-2.5,13.3h-7.1l6.3-33ZM212.5,395.8h3c3.9,0,6.8-2.4,6.8-5.6s-2.3-3.9-5.1-3.9-2.2.1-2.8.2l-1.8,9.3Z"/>
  </g>
  <g class="cls-23">
    <path class="cls-5" d="M247.5,405.8l-4,8.8h-7.6l16.4-33.7h9.3l4,33.7h-7.5l-.7-8.8h-9.7ZM256.9,400.3l-.6-7.2c-.1-1.9-.4-4.5-.5-6.6h-.1c-.9,2-1.8,4.6-2.7,6.6l-3.4,7.2h7.3Z"/>
  </g>
  <g class="cls-25">
    <path class="cls-5" d="M268.9,417.9c1.4.8,4.4,1.4,6.4,1.4,3.6,0,6.3-1.6,7.3-6.5l.4-2h-.1c-1.9,2.5-4.1,3.6-7,3.6-4.9,0-7.8-4-7.9-8.7,0-8.1,5.8-16.1,16.4-16.1s6.5.6,9,1.7l-3.7,20.1c-.9,4.5-2.2,8.5-5.1,10.9-2.6,2.1-6.2,2.8-9.5,2.8s-6.3-.6-8-1.5l1.7-5.5ZM285.7,395.5c-.5-.2-1.6-.5-2.6-.5-4.4,0-7.5,4.9-7.5,9.5s1.1,4.2,3.3,4.2,4.8-2.6,5.5-6.8l1.3-6.5Z"/>
  </g>
  <g class="cls-24">
    <path class="cls-5" d="M314.6,413.2c-2.9,1.5-6.4,2-9.1,2-7,0-10.6-4-10.6-10.4s5.4-15.2,14.2-15.2,8.5,2.8,8.5,7.3-6,8.5-15.9,8.2c0,.7.2,1.8.8,2.5,1,1.2,2.6,1.9,4.7,1.9s4.9-.6,6.9-1.5l.5,5.2ZM310.9,396.8c0-1.2-1-2-2.6-2-3.4,0-5.2,2.8-5.8,5,5.6,0,8.4-.8,8.4-3h0Z"/>
  </g>
  <g class="cls-27">
    <path class="cls-5" d="M318.2,414.6l3.1-16.5c.6-3.1,1-5.8,1.3-8h6.4l-.5,4h.1c2.3-3.2,5.4-4.6,8.6-4.6s6.2,2.5,6.2,6.6-.2,3-.4,4.1l-2.7,14.2h-7.2l2.5-13.5c.1-.9.2-1.9.2-2.8,0-1.7-.6-2.9-2.4-2.9s-5.1,3-6.1,8.4l-2,10.9h-7.2Z"/>
  </g>
  <g class="cls-21">
    <path class="cls-5" d="M363.4,413.8c-1.5.8-4,1.3-7,1.3-6,0-10.3-3.7-10.3-10s6.6-15.5,16-15.5,3.9.4,5,.8l-1.8,5.5c-.9-.4-1.9-.6-3.3-.6-5.1,0-8.3,4.4-8.3,9s2.1,5,4.8,5,3.6-.5,4.9-1v5.5Z"/>
  </g>
  <g class="cls-22">
    <path class="cls-5" d="M375.7,390.1l1.5,10.6c.4,2.5.6,4.2.8,5.8h.1c.5-1.5,1.1-3,2.1-5.7l4.5-10.8h7.6l-8.8,17.5c-3.2,6.5-6.1,11-9.4,14-2.9,2.7-6.2,3.9-7.9,4.1l-1.6-6.1c1.1-.4,2.8-1,4.1-2,1.6-1.1,3-2.6,4-4.2.2-.4.2-.6.1-1.2l-4.9-22.1h7.6Z"/>
  </g>
  <g class="cls-28">
    <path class="cls-5" d="M206.9,450.2c0,7.5-5.3,15.2-13.4,15.2s-9.4-4.5-9.4-10c0-8,5.6-15.4,13.4-15.4s9.4,5,9.4,10.1M188.4,455.3c0,4,2.1,6.8,5.7,6.8s8.6-6.3,8.6-12-1.3-6.8-5.6-6.8c-5.2,0-8.7,6.4-8.7,11.9"/>
  </g>
  <g class="cls-26">
    <path class="cls-5" d="M209.4,464.9l3.9-20.9h-3.2l.6-3.3h3.2l.2-1.2c.6-3.4,1.8-6.5,3.9-8.5,1.5-1.4,3.6-2.1,5.8-2.1s2.8.3,3.3.6l-.9,3.3c-.6-.3-1.5-.5-2.4-.5-3.3,0-4.9,3.2-5.6,7.2l-.2,1.1h5.4l-.6,3.3h-5.4l-4,20.9h-4.1Z"/>
  </g>
  <g class="cls-29">
    <path class="cls-5" d="M240.8,434.9l-1.1,5.8h5.8l-.6,3.2h-5.8l-2.2,11.8c-.2,1.4-.4,2.6-.4,3.9s.7,2.4,2.3,2.4,1.4,0,1.9-.2l-.2,3.3c-.8.2-2,.5-3.2.5-3.7,0-5.1-2.2-5.1-4.7s.1-2.8.5-4.5l2.4-12.2h-3.5l.6-3.2h3.4l.9-4.5,4.4-1.3Z"/>
  </g>
  <g class="cls-30">
    <path class="cls-5" d="M244.7,464.9l6.8-35.5h4.1l-3,15.6h.1c2.1-3,5-4.9,8.7-4.9s6,1.7,6,6.5-.1,2.9-.4,4.1l-2.7,14.1h-4.1l2.7-14c.1-.9.3-2,.3-3.4,0-2.2-1-4-3.8-4s-7.2,3.8-8.2,9.2l-2.2,12.1h-4.2Z"/>
  </g>
  <g class="cls-47">
    <path class="cls-5" d="M287.9,463.5c-1.8,1-4.8,2-8,2-6.4,0-9.2-4.4-9.2-9.8s5.4-15.5,13.2-15.5,7.1,2.8,7.1,6.2c0,6.4-7.1,8-16.1,7.9-.2,1,0,3.3.5,4.6,1,2.1,2.9,3.2,5.4,3.2s5-.9,6.5-1.7l.6,3.1ZM287,446.4c0-2-1.5-3-3.7-3-4,0-6.9,3.9-7.9,7.6,6.5,0,11.6-.8,11.6-4.5h0Z"/>
  </g>
  <g class="cls-48">
    <path class="cls-5" d="M305.5,440.7l2.4,13c.5,2.8.9,4.6,1.1,6.4h.1c.6-1.5,1.4-3.2,2.6-5.9l6.1-13.5h4.4l-9,18.4c-2.6,5.2-5,9.5-8.4,12.7-2.7,2.8-5.6,3.9-7,4.2l-1-3.5c1-.4,2.8-1,4.5-2.4,1.6-1.2,3.4-3.2,4.6-5.5.2-.4.2-.7.1-1.1l-4.9-22.8h4.3Z"/>
  </g>
  <g class="cls-49">
    <path class="cls-5" d="M338.3,463.5c-1.8,1-4.8,2-8,2-6.4,0-9.2-4.4-9.2-9.8s5.4-15.5,13.2-15.5,7.1,2.8,7.1,6.2c0,6.4-7.1,8-16.1,7.9-.2,1,0,3.3.5,4.6,1,2.1,2.9,3.2,5.4,3.2s5-.9,6.5-1.7l.6,3.1ZM337.4,446.4c0-2-1.5-3-3.7-3-4,0-6.9,3.9-7.9,7.6,6.5,0,11.6-.8,11.6-4.5h0Z"/>
  </g>
  <g class="cls-45">
    <path class="cls-5" d="M358.5,464.9c0-1.5.2-3.8.5-6.2h-.1c-2.6,5-6,6.8-9.4,6.8s-7-3.4-7-8c0-8.4,6.2-17.3,16.8-17.3s4.9.4,6.5,1l-2.5,12.6c-.8,4.2-1.1,8.5-1,11.2h-3.8ZM361.2,443.8c-.6-.1-1.5-.4-2.9-.4-6.2,0-11.4,6.5-11.4,13.2,0,2.7,1,5.4,4.1,5.4s7.5-4.5,8.8-11l1.4-7.3Z"/>
  </g>
  <g class="cls-46">
    <path class="cls-5" d="M367.6,464.9l3-15.6c.6-3.1,1-6.4,1.2-8.6h3.6c-.2,1.7-.4,3.4-.6,5.2h.1c1.5-3.3,4.1-5.8,7.4-5.8s.9,0,1.1.1l-.8,4.1c-.2,0-.6-.1-1.1-.1-3.6,0-6.8,4.4-7.9,10l-2,10.6h-4.1Z"/>
  </g>
</svg>